<svg id="outline-directions_bike-24px" xmlns="http://www.w3.org/2000/svg" width="24" height="24" viewBox="0 0 24 24">
  <defs>
    <style>
      .cls-1 {
        fill: none;
      }

      .cls-2 {
        fill: #ccc;
      }
    </style>
  </defs>
  <path id="Path_468" data-name="Path 468" class="cls-1" d="M0,0H24V24H0Z"/>
  <path id="Path_469" data-name="Path 469" class="cls-2" d="M15.5,5.773a2.078,2.078,0,0,0,2-2.137,2,2,0,1,0-4,0A2.078,2.078,0,0,0,15.5,5.773ZM5,12.717a5.129,5.129,0,0,0-5,5.341A5.129,5.129,0,0,0,5,23.4a5.129,5.129,0,0,0,5-5.341A5.129,5.129,0,0,0,5,12.717ZM5,21.8A3.747,3.747,0,0,1,5,14.32,3.747,3.747,0,0,1,5,21.8Zm5.8-10.683,2.4-2.564.8.855a6.79,6.79,0,0,0,5.1,2.243V9.512a4.818,4.818,0,0,1-3.6-1.6L13.6,5.88A2.362,2.362,0,0,0,12,5.239a1.633,1.633,0,0,0-1.4.641L7.8,8.871a2.182,2.182,0,0,0-.6,1.5,1.849,1.849,0,0,0,.6,1.5L11,14.854V20.2h2V13.572Zm8.2,1.6a5.129,5.129,0,0,0-5,5.341A5.129,5.129,0,0,0,19,23.4a5.129,5.129,0,0,0,5-5.341A5.129,5.129,0,0,0,19,12.717Zm0,9.08a3.747,3.747,0,0,1,0-7.478A3.747,3.747,0,0,1,19,21.8Z" transform="translate(0 -0.6)"/>
</svg>
