<svg xmlns="http://www.w3.org/2000/svg" width="24" height="24" viewBox="0 0 24 24">
  <defs>
    <style>
      .cls-1 {
        fill: none;
      }

      .cls-2 {
        fill: #ccc;
      }
    </style>
  </defs>
  <g id="outline-wc-24px" transform="translate(-0.01)">
    <path id="Path_484" data-name="Path 484" class="cls-1" d="M.01,0h24V24H.01V0Z"/>
    <path id="Path_485" data-name="Path 485" class="cls-2" d="M5.747,23.6V15.5H4V9.56A2.256,2.256,0,0,1,6.329,7.4H9.824a2.256,2.256,0,0,1,2.329,2.16V15.5H10.406v8.1Zm14.559,0V17.12H23.8L20.842,8.88A2.333,2.333,0,0,0,18.629,7.4h-.14a2.321,2.321,0,0,0-2.213,1.48l-2.958,8.24h3.494V23.6ZM8.076,6.32a2.242,2.242,0,0,0,2.329-2.16A2.242,2.242,0,0,0,8.076,2,2.242,2.242,0,0,0,5.747,4.16,2.242,2.242,0,0,0,8.076,6.32Zm10.482,0a2.242,2.242,0,0,0,2.329-2.16,2.336,2.336,0,0,0-4.659,0A2.242,2.242,0,0,0,18.559,6.32Z" transform="translate(-1.596 -0.8)"/>
  </g>
</svg>
