<svg id="outline-directions_boat-24px" xmlns="http://www.w3.org/2000/svg" width="24" height="24" viewBox="0 0 24 24">
  <defs>
    <style>
      .cls-1 {
        fill: none;
      }

      .cls-2 {
        fill: #ccc;
      }
    </style>
  </defs>
  <path id="Path_470" data-name="Path 470" class="cls-1" d="M0,0H24V24H0Z"/>
  <path id="Path_471" data-name="Path 471" class="cls-2" d="M13.88,3.073V4.109H11.72V3.073h2.16M12.8,10.441l5.81,1.834,2.581.808L19.981,17.2a4.718,4.718,0,0,1-1.231-.974l-1.631-1.793-1.631,1.783A3.872,3.872,0,0,1,12.8,17.582a3.872,3.872,0,0,1-2.689-1.368L8.48,14.431,6.849,16.214a4.725,4.725,0,0,1-1.231.964l-1.22-4.1,2.592-.819,5.81-1.814M16.039,1H9.56V4.109H6.32A2.124,2.124,0,0,0,4.16,6.182V10.97l-1.393.435a1.067,1.067,0,0,0-.648.518,1,1,0,0,0-.065.808l2.052,6.923H4.16a5.976,5.976,0,0,0,4.32-2.073,5.976,5.976,0,0,0,4.32,2.073,5.976,5.976,0,0,0,4.32-2.073,5.976,5.976,0,0,0,4.32,2.073h.054l2.041-6.923a1.051,1.051,0,0,0-.065-.808,1.067,1.067,0,0,0-.648-.518l-1.382-.435V6.182a2.124,2.124,0,0,0-2.16-2.073h-3.24ZM6.32,10.3V6.182H19.279V10.3L12.8,8.255Zm10.8,10.063a7.7,7.7,0,0,1-8.64,0,7.811,7.811,0,0,1-4.32,1.368H2V23.8H4.16a9.857,9.857,0,0,0,4.32-1.026,9.87,9.87,0,0,0,4.32,1.005,9.728,9.728,0,0,0,4.32-1.005,9.716,9.716,0,0,0,4.32,1.026H23.6V21.727h-2.16A7.811,7.811,0,0,1,17.119,20.359Z" transform="translate(-0.799 -0.4)"/>
</svg>
