<svg id="outline-spa-24px" xmlns="http://www.w3.org/2000/svg" width="24" height="24" viewBox="0 0 24 24">
  <defs>
    <style>
      .cls-1 {
        fill: none;
      }

      .cls-2 {
        fill: #ccc;
      }
    </style>
  </defs>
  <path id="Path_482" data-name="Path 482" class="cls-1" d="M0,0H24V24H0Z"/>
  <path id="Path_483" data-name="Path 483" class="cls-2" d="M16.569,10.24A12.735,12.735,0,0,0,12.865,2a13.163,13.163,0,0,0-3.834,8.24,14.976,14.976,0,0,1,3.769,2.84A15.506,15.506,0,0,1,16.569,10.24Zm-3.715-4.8a10.957,10.957,0,0,1,1.4,3.65,15.523,15.523,0,0,0-1.447,1.058,17.466,17.466,0,0,0-1.436-1.048,11.025,11.025,0,0,1,1.48-3.661ZM12.8,16.526A13.079,13.079,0,0,0,9.5,13.07c-.14-.1-.292-.173-.432-.281.14.1.292.184.421.27A12.719,12.719,0,0,0,2,10.64a13.148,13.148,0,0,0,8.672,12.409A11.609,11.609,0,0,0,12.8,23.6a13.975,13.975,0,0,0,2.128-.551A13.148,13.148,0,0,0,23.6,10.64,12.9,12.9,0,0,0,12.8,16.526Zm1.426,4.482a13.5,13.5,0,0,1-1.436.4,9.674,9.674,0,0,1-1.382-.389,10.963,10.963,0,0,1-6.966-7.938,10.914,10.914,0,0,1,3.37,1.436l-.022.011a4.59,4.59,0,0,0,.421.27l.076.043A10.693,10.693,0,0,1,11,17.7l1.8,2.765,1.8-2.754a11,11,0,0,1,2.732-2.873l.076-.054c.1-.054.194-.119.292-.184l-.011-.022a10.792,10.792,0,0,1,3.467-1.512,10.927,10.927,0,0,1-6.934,7.938ZM9.549,13.1a.236.236,0,0,1-.054-.043.011.011,0,0,1,.011.011A.149.149,0,0,0,9.549,13.1Z" transform="translate(-0.8 -0.8)"/>
</svg>
