<svg id="outline-filter_vintage-24px" xmlns="http://www.w3.org/2000/svg" width="24" height="24" viewBox="0 0 24 24">
  <defs>
    <style>
      .cls-1 {
        fill: none;
      }

      .cls-2 {
        fill: #ccc;
      }
    </style>
  </defs>
  <path id="Path_472" data-name="Path 472" class="cls-1" d="M0,0H24V24H0Z"/>
  <path id="Path_473" data-name="Path 473" class="cls-2" d="M20.255,12.736a6.84,6.84,0,0,0-.942-.412,6.841,6.841,0,0,0,.942-.412,6.126,6.126,0,0,0,3.285-5.34,6.986,6.986,0,0,0-3.3-.823,6.884,6.884,0,0,0-3.274.823,6.961,6.961,0,0,0-.854.556A5.8,5.8,0,0,0,16.2,6.15,6.116,6.116,0,0,0,12.92.81,6.116,6.116,0,0,0,9.635,6.15a5.8,5.8,0,0,0,.088.978,5.991,5.991,0,0,0-.854-.566A6.884,6.884,0,0,0,5.6,5.739a7.018,7.018,0,0,0-3.3.823A6.084,6.084,0,0,0,5.585,11.9a6.84,6.84,0,0,0,.942.412,6.841,6.841,0,0,0-.942.412A6.126,6.126,0,0,0,2.3,18.066a6.986,6.986,0,0,0,3.3.823,6.884,6.884,0,0,0,3.274-.823,6.961,6.961,0,0,0,.854-.556,6.022,6.022,0,0,0-.088.988,6.116,6.116,0,0,0,3.285,5.34A6.116,6.116,0,0,0,16.2,18.5a5.8,5.8,0,0,0-.088-.978,5.937,5.937,0,0,0,.854.556,6.884,6.884,0,0,0,3.274.823,7.018,7.018,0,0,0,3.3-.823,6.126,6.126,0,0,0-3.285-5.34ZM17.475,8.743a3.391,3.391,0,0,1,.591-.381,4.627,4.627,0,0,1,2.19-.556,4.825,4.825,0,0,1,.865.082,4.214,4.214,0,0,1-1.949,2.243,5.1,5.1,0,0,1-.635.278l-1.511.535a4.221,4.221,0,0,0-.788-1.276l1.237-.926Zm-4.555-5.3A4,4,0,0,1,14.015,6.15a4.681,4.681,0,0,1-.055.648L13.708,8.28a5.1,5.1,0,0,0-.788-.072,4.845,4.845,0,0,0-.777.072L11.891,6.8a3.5,3.5,0,0,1-.066-.648A3.979,3.979,0,0,1,12.92,3.444ZM4.72,7.879A4.14,4.14,0,0,1,5.6,7.8a4.5,4.5,0,0,1,2.179.556,3.557,3.557,0,0,1,.536.36L9.57,9.7A4.315,4.315,0,0,0,8.8,10.935L7.292,10.4a6.668,6.668,0,0,1-.613-.278A4.094,4.094,0,0,1,4.72,7.879Zm3.646,8.016a3.391,3.391,0,0,1-.591.381,4.627,4.627,0,0,1-2.19.556,4.825,4.825,0,0,1-.865-.082,4.214,4.214,0,0,1,1.949-2.243,5.1,5.1,0,0,1,.635-.278l1.511-.535A3.905,3.905,0,0,0,9.6,14.968l-1.237.926ZM12.92,21.2A4,4,0,0,1,11.825,18.5a3.8,3.8,0,0,1,.066-.669l.241-1.461a4.29,4.29,0,0,0,1.566,0l.252,1.482a3.5,3.5,0,0,1,.066.648A3.979,3.979,0,0,1,12.92,21.2Zm7.325-4.363a4.5,4.5,0,0,1-2.179-.556,3.892,3.892,0,0,1-.536-.35l-1.259-.988a4.012,4.012,0,0,0,.766-1.245l1.511.535a4.338,4.338,0,0,1,.624.268,4.169,4.169,0,0,1,1.949,2.243,3.681,3.681,0,0,1-.876.093Z" transform="translate(-0.92 -0.324)"/>
</svg>
