<svg id="outline-pool-24px" xmlns="http://www.w3.org/2000/svg" width="24" height="24" viewBox="0 0 24 24">
  <defs>
    <style>
      .cls-1 {
        fill: none;
      }

      .cls-2 {
        fill: #ccc;
      }
    </style>
  </defs>
  <path id="Path_478" data-name="Path 478" class="cls-1" d="M0,0H24V24H0Z"/>
  <path id="Path_479" data-name="Path 479" class="cls-2" d="M10.64,8.667,7.13,12.35a5.808,5.808,0,0,1,.832.442A1.879,1.879,0,0,0,9.2,13.2a1.879,1.879,0,0,0,1.242-.408,4.066,4.066,0,0,1,2.365-.725,4,4,0,0,1,2.354.725,1.964,1.964,0,0,0,1.242.408,1.9,1.9,0,0,0,1.242-.408c.13-.079.281-.17.443-.261L11.158,5.267C9.484,3.51,7.94,2.989,5.24,3V5.833a5.181,5.181,0,0,1,4.32,1.7ZM23.6,18.3h0ZM5.618,17.167a1.964,1.964,0,0,1,1.242.408,4,4,0,0,0,2.354.725,4,4,0,0,0,2.354-.725,1.879,1.879,0,0,1,1.242-.408,1.964,1.964,0,0,1,1.242.408,4.184,4.184,0,0,0,4.709,0A1.879,1.879,0,0,1,20,17.167a1.964,1.964,0,0,1,1.242.408,4.029,4.029,0,0,0,2.333.725V16.033a1.964,1.964,0,0,1-1.242-.408,4.184,4.184,0,0,0-4.709,0,1.9,1.9,0,0,1-1.242.408,1.964,1.964,0,0,1-1.242-.408,4.184,4.184,0,0,0-4.709,0,1.879,1.879,0,0,1-1.242.408,1.964,1.964,0,0,1-1.242-.408A4,4,0,0,0,5.6,14.9a4,4,0,0,0-2.354.725A1.879,1.879,0,0,1,2,16.033V18.3a4.135,4.135,0,0,0,2.376-.725,1.9,1.9,0,0,1,1.242-.408ZM20,20a4,4,0,0,0-2.354.725,1.9,1.9,0,0,1-1.242.408,1.964,1.964,0,0,1-1.242-.408A4,4,0,0,0,12.811,20a4.066,4.066,0,0,0-2.365.725,1.879,1.879,0,0,1-1.242.408,1.879,1.879,0,0,1-1.242-.408A4,4,0,0,0,5.607,20a4.066,4.066,0,0,0-2.365.725A1.879,1.879,0,0,1,2,21.133V23.4a4.066,4.066,0,0,0,2.365-.725,1.9,1.9,0,0,1,1.242-.408,1.9,1.9,0,0,1,1.242.408A4,4,0,0,0,9.2,23.4a4.066,4.066,0,0,0,2.365-.725,1.879,1.879,0,0,1,1.242-.408,1.964,1.964,0,0,1,1.242.408,4.184,4.184,0,0,0,4.709,0A1.879,1.879,0,0,1,20,22.267a1.964,1.964,0,0,1,1.242.408A4,4,0,0,0,23.6,23.4V21.133a1.879,1.879,0,0,1-1.242-.408A4,4,0,0,0,20,20Z" transform="translate(-0.8 -1.2)"/>
  <circle id="Ellipse_72" data-name="Ellipse 72" class="cls-2" cx="1.5" cy="1.5" r="1.5" transform="translate(15.474 1.8)"/>
</svg>
