<svg class="icon" style="width: 1em; height: 1em;vertical-align: middle;fill: #747474;overflow: hidden;" viewBox="0 0 1024 1024" version="1.1" xmlns="http://www.w3.org/2000/svg"><path d="M813.107635 365.688165q10.312406 104.001714-74.819799 147.445468 66.847797 16.017142 99.979144 58.875795t25.744447 122.286122q-4.02257 40.591386-18.576959 71.455467t-36.861367 50.830655-55.438326 33.423898-69.407614 19.747161-83.157489 8.557103l0 145.690165-87.984573 0 0-143.422898q-45.711021 0-69.700164-0.585101l0 144.007999-87.984573 0 0-145.690165q-10.312406 0-30.864081-0.292551t-31.449182-0.292551l-114.31412 0 17.699307-104.586815 63.410328 0q28.596815 0 33.131348-29.108778l0-229.725305 9.142204 0q-3.437469-0.585101-9.142204-0.585101l0-163.974573q-7.460039-38.836083-50.830655-38.836083l-63.410328 0 0-93.689308 121.11592 0.585101q36.568817 0 55.438326-0.585101l0-144.007999 87.984573 0 0 141.155632q46.881223-1.170202 69.700164-1.170202l0-139.98543 87.984573 0 0 144.007999q45.12592 4.02257 80.012571 12.872223t64.58053 25.744447 47.173773 44.540819 20.844225 65.458182zM690.309549 677.108207q0-20.551675-8.557103-36.568817t-21.136776-26.25641-32.838797-17.406757-37.446468-10.604957-42.273552-5.119634-39.421184-1.682166-36.861367 0.585101-27.134062 0.585101l0 193.156489q4.534533 0 21.136776 0.292551t27.426612 0.292551 30.27898-0.877652 33.423898-2.267267 32.546247-4.827084 31.741733-7.972002 27.134062-11.994572 22.599529-17.114206 13.969288-22.818942 5.412185-29.108778zM649.718163 405.109349q0-18.869509-7.167488-33.423898t-17.406757-23.989144-27.426612-16.017142-31.449182-9.434755-35.106064-4.534533-33.131348-1.462753-30.864081 0.585101-22.599529 0.292551l0 175.384044q2.852368 0 19.747161 0.292551t26.548961 0 28.596815-1.170202 31.449182-3.144918 29.401328-6.289836 27.719163-10.604957 21.136776-15.432041 15.432041-22.014428 5.119634-29.108778z" /></svg>