<svg xmlns="http://www.w3.org/2000/svg" width="36" height="36" viewBox="0 0 36 36">
  <defs>
    <style>
      .cls-1 {
        fill: #fff;
      }
    </style>
  </defs>
  <path id="plane" class="cls-1" d="M5.794,20.161a3.182,3.182,0,0,0-3.529.651L.308,22.768a1.055,1.055,0,0,0,.2,1.65l6.2,3.719L4.334,30.512A1.055,1.055,0,0,0,5.826,32l2.416-2.416,3.84,6.4a1.055,1.055,0,0,0,1.65.2l1.956-1.956a3.182,3.182,0,0,0,.651-3.53l-1.6-3.574,5.2-4.74L29.986,34.46a1.055,1.055,0,0,0,1.556.071,6.754,6.754,0,0,0,1.189-7.949l-1.3-2.44,1.121-1.121a3.164,3.164,0,0,0-4.217-4.7L27.056,15.9l7.256-6.615a5.028,5.028,0,1,0-7.1-7.1L20.6,9.443l-2.62-1.392a3.163,3.163,0,0,0-4.661-4.269L12.146,4.953,9.917,3.768A6.754,6.754,0,0,0,1.968,4.958a1.055,1.055,0,0,0,.071,1.556L14.108,16.561l-4.74,5.2Zm23.78-.123a1.054,1.054,0,0,1,1.491,1.491l-.665.665-1.035-1.948Zm1.3,7.534a4.621,4.621,0,0,1-.1,4.538L21.5,20.969l3.949-3.6,5.421,10.2Zm-16.06-22.3A1.054,1.054,0,0,1,16.3,6.764l-.258.258L14.094,5.987ZM4.39,5.726a4.62,4.62,0,0,1,4.538-.1l10.2,5.421L15.53,15Zm6.023,18.019L28.786,3.593a2.919,2.919,0,1,1,4.121,4.121L12.754,26.087A1.055,1.055,0,0,0,12.5,27.3l1.911,4.27a1.06,1.06,0,0,1-.217,1.176l-1,1L9.779,28.05l.432-.432A1.055,1.055,0,1,0,8.72,26.127l-.472.472L2.755,23.3l1-1a1.061,1.061,0,0,1,1.177-.217L9.2,24a1.055,1.055,0,0,0,1.21-.252Zm0,0" transform="translate(0 -0.5)"/>
</svg>
