<svg id="outline-card_giftcard-24px" xmlns="http://www.w3.org/2000/svg" width="24" height="24" viewBox="0 0 24 24">
  <defs>
    <style>
      .cls-1 {
        fill: none;
      }

      .cls-2 {
        fill: #ccc;
      }
    </style>
  </defs>
  <path id="Path_466" data-name="Path 466" class="cls-1" d="M0,0H24V24H0Z"/>
  <path id="Path_467" data-name="Path 467" class="cls-2" d="M21.44,6.421H19.086a3.39,3.39,0,0,0,.194-1.105A3.274,3.274,0,0,0,16.04,2a3.218,3.218,0,0,0-2.7,1.492l-.54.741-.54-.752A3.234,3.234,0,0,0,9.56,2,3.274,3.274,0,0,0,6.32,5.316a3.39,3.39,0,0,0,.194,1.105H4.16A2.169,2.169,0,0,0,2.011,8.632L2,20.789A2.178,2.178,0,0,0,4.16,23H21.44a2.178,2.178,0,0,0,2.16-2.211V8.632A2.178,2.178,0,0,0,21.44,6.421Zm-5.4-2.211a1.106,1.106,0,1,1-1.08,1.105A1.1,1.1,0,0,1,16.04,4.211Zm-6.48,0A1.106,1.106,0,1,1,8.48,5.316,1.1,1.1,0,0,1,9.56,4.211ZM21.44,20.789H4.16V18.579H21.44Zm0-5.526H4.16V8.632H9.646L7.4,11.759l1.75,1.293L12.8,7.968l3.65,5.084,1.75-1.293L15.954,8.632H21.44Z" transform="translate(-0.8 -0.8)"/>
</svg>
